<svg width="22" height="17" viewBox="0 0 22 17" fill="none" xmlns="http://www.w3.org/2000/svg">
<path d="M21.0872 1.93961C21.0226 1.85999 20.9412 1.79566 20.8488 1.75125C20.7564 1.70684 20.6553 1.68346 20.5527 1.68278H6.10092L6.55211 3.07104H19.6434L17.7901 11.4006H7.37813L4.20595 1.35654C4.17164 1.24996 4.11205 1.15327 4.03228 1.0747C3.95251 0.996139 3.85491 0.938038 3.74782 0.905357L0.901887 0.0307522C0.814379 0.00386166 0.722431 -0.00552952 0.631293 0.00311481C0.540155 0.0117591 0.451613 0.0382697 0.37072 0.081133C0.207351 0.167699 0.0850612 0.315618 0.0307533 0.492349C-0.0235547 0.66908 -0.00543221 0.860147 0.081134 1.02352C0.1677 1.18689 0.315619 1.30917 0.49235 1.36348L2.98428 2.12703L6.17034 12.1919L5.03196 13.1221L4.94173 13.2123C4.66014 13.5368 4.50054 13.9493 4.4904 14.3788C4.48027 14.8084 4.62023 15.228 4.8862 15.5654C5.07539 15.7955 5.3158 15.9781 5.5882 16.0986C5.8606 16.2191 6.15742 16.2742 6.45493 16.2595H18.04C18.2241 16.2595 18.4006 16.1864 18.5308 16.0562C18.661 15.926 18.7341 15.7495 18.7341 15.5654C18.7341 15.3813 18.661 15.2047 18.5308 15.0746C18.4006 14.9444 18.2241 14.8713 18.04 14.8713H6.34387C6.26394 14.8685 6.18606 14.8452 6.11776 14.8036C6.04946 14.762 5.99305 14.7035 5.95397 14.6337C5.9149 14.5639 5.89447 14.4852 5.89468 14.4053C5.89489 14.3253 5.91572 14.2467 5.95516 14.1771L7.62801 12.7889H18.3454C18.5058 12.7928 18.6627 12.741 18.7893 12.6423C18.9158 12.5436 19.0043 12.404 19.0395 12.2474L21.2399 2.52962C21.261 2.42614 21.2582 2.3192 21.2318 2.21696C21.2053 2.11472 21.1559 2.01986 21.0872 1.93961Z" fill="black"/>
</svg>
